<?xml version="1.0" encoding="UTF-8"?><svg id="Calque_1" xmlns="http://www.w3.org/2000/svg" viewBox="0 0 39.82 33.11"><defs><style>.cls-1{fill:#48dbfb;}.cls-2{fill:#010101;}</style></defs><path class="cls-1" d="M21.35,.55c-6.17-.17-11.44,.35-17.58,.98-.61,.06-1.24,.14-1.77,.45-1.35,.81-1.38,2.16-1.24,3.73,.05,.52,.16,1.15,.65,1.34,.14,.05,.28,.06,.43,.07,11.1,.74,23.47,.38,34.56-.47,1.37-.1,1.71-.25,2.44-1.41,.83-1.31,.62-3.07-.71-3.87-1.33-.8-1.72-.87-3.27-.88-4.19,0-9.32,.16-13.5,.05Z"/><path class="cls-2" d="M14.77,8.02c-4.26,0-8.64-.11-12.97-.4-.15-.01-.36-.02-.58-.11-.84-.33-.93-1.37-.96-1.76C.12,4.16,.12,2.53,1.74,1.55c.64-.39,1.38-.46,1.98-.52C9.5,.43,14.97-.13,21.36,.05h0c2.59,.07,5.55,.03,8.41,0C31.53,.02,33.26,0,34.85,0c1.62,0,2.1,.09,3.53,.95,.68,.41,1.16,1.08,1.35,1.87,.21,.9,.04,1.88-.48,2.7-.83,1.32-1.32,1.52-2.82,1.64-5.8,.44-13.48,.87-21.66,.87ZM18.97,1.01c-5.34,0-10.12,.49-15.15,1.01-.63,.06-1.15,.13-1.56,.38-1.03,.62-1.15,1.59-1,3.26,.05,.54,.16,.85,.34,.92,.07,.03,.18,.03,.28,.04,12.59,.83,25.71,.21,34.49-.47,1.22-.09,1.42-.16,2.05-1.18,.37-.6,.5-1.3,.35-1.94-.09-.37-.31-.89-.9-1.24-1.24-.75-1.53-.8-3.01-.8-1.58,0-3.3,.02-5.06,.04-2.87,.04-5.84,.08-8.45,0h0c-.8-.02-1.59-.03-2.37-.03Z"/><path class="cls-1" d="M20.7,14.45c-5.72,.19-11.39,.05-17.11,.23-1.01,.03-2.19,.15-2.73,1.01-.53,.84-.35,2.3-.22,3.32,.12,.91,.71,1.32,1.62,1.41,1.05,.11,2.48,.06,3.54,.08,9.23,.17,19.08-.23,28.12,0,1.24,.03,2.57-.21,3.49-1.04,.75-.68,1.08-1.73,1.12-2.75,.03-.86-.16-1.8-.83-2.35-.65-.54-1.57-.56-2.42-.55-5.06,.03-9.55,.48-14.6,.65Z"/><path class="cls-2" d="M11.01,21.04c-1.75,0-3.5-.01-5.21-.04-1.05-.02-2.49,.02-3.58-.09-1.52-.15-1.97-1.09-2.07-1.84-.17-1.27-.31-2.7,.29-3.65,.74-1.17,2.36-1.22,3.14-1.24,2.8-.09,5.64-.1,8.38-.11,2.86-.01,5.82-.02,8.73-.12h0c2.06-.07,4.06-.19,5.99-.3,2.77-.16,5.63-.33,8.63-.35,.77,0,1.91-.01,2.74,.67,.7,.57,1.06,1.55,1.01,2.76-.05,1.29-.51,2.39-1.29,3.1-1.12,1.02-2.71,1.19-3.84,1.17-4.69-.11-9.7-.06-14.55,0-2.76,.03-5.57,.06-8.36,.06Zm9.71-6.1c-2.93,.1-5.9,.11-8.76,.12-2.73,.01-5.56,.02-8.35,.11-.97,.03-1.92,.15-2.32,.77-.45,.72-.25,2.19-.14,2.98,.06,.43,.25,.89,1.18,.99,1.03,.1,2.46,.06,3.5,.08,4.42,.08,9.05,.03,13.54-.02,4.85-.05,9.88-.1,14.58,0,.95,.03,2.27-.12,3.15-.91,.78-.7,.94-1.8,.96-2.4,.02-.51-.04-1.44-.65-1.94-.5-.41-1.28-.44-2.09-.44-2.98,.02-5.7,.18-8.58,.35-1.93,.12-3.94,.23-6.01,.3h0Z"/><path class="cls-1" d="M19.7,26.96c-5.88,.05-11.02-.46-16.91-.23-.39,.01-.8,.11-1.07,.38-.38,.38-.34,.99-.28,1.51l.13,1.17c.11,1.01,1.02,2.78,2.03,2.78,8.72,.05,16.99,.03,25.71-.07,1.72-.02,3.44-.04,5.15-.23,1.07-.12,2.13-.29,3.18-.53,.39-.09,.81-.21,1.07-.51,.21-.25,.28-.6,.33-.93,.08-.58,.1-1.17,.08-1.75-.05-1.03-.9-1.87-1.93-1.9-5.89-.17-11.56,.24-17.5,.29Z"/><path class="cls-2" d="M12.29,33.11c-2.87,0-5.75,0-8.69-.03-1.4,0-2.4-2.14-2.53-3.23l-.13-1.17c-.05-.47-.15-1.35,.43-1.93,.33-.32,.81-.51,1.4-.53,3.35-.13,6.51-.02,9.57,.08,2.36,.08,4.8,.17,7.35,.14h0c2.27-.02,4.53-.09,6.71-.16,3.52-.11,7.15-.23,10.81-.12,1.29,.04,2.35,1.08,2.42,2.37,.03,.61,0,1.23-.08,1.84-.06,.4-.15,.83-.44,1.18-.36,.42-.88,.57-1.35,.68-1.06,.24-2.15,.42-3.24,.54-1.76,.19-3.59,.21-5.2,.23-5.86,.07-11.42,.1-17.03,.1Zm-6.28-5.94c-1.04,0-2.1,.02-3.19,.06-.33,.01-.59,.1-.74,.24-.21,.21-.19,.65-.14,1.1l.13,1.17c.11,.94,.93,2.33,1.54,2.34,8.68,.05,16.85,.03,25.7-.07,1.67-.02,3.39-.04,5.11-.22,1.05-.11,2.1-.29,3.12-.52,.32-.07,.65-.16,.8-.35,.13-.15,.18-.41,.22-.67,.08-.55,.1-1.1,.07-1.66-.04-.77-.67-1.4-1.45-1.42-3.62-.11-7.24,0-10.75,.12-2.19,.07-4.46,.14-6.74,.16h0c-2.57,.03-5.02-.06-7.39-.14-2.13-.07-4.19-.15-6.31-.15Z"/></svg>